<svg style="border:0;clip:rect(0 0 0 0);height:auto;margin:0;overflow:hidden;padding:0;position:absolute;width:1px;white-space:nowrap"><symbol id="svg--auth-github-outlined" viewBox="0 0 20 20"><g clip-path="url(#svg-style--auth-github-outlined__clip0_163_1356)"><path d="M10 .247c-5.525 0-10 4.478-10 10a9.998 9.998 0 0 0 6.838 9.488c.5.094.683-.215.683-.48 0-.238-.008-.867-.013-1.7-2.781.602-3.368-1.343-3.368-1.343-.455-1.154-1.112-1.462-1.112-1.462-.906-.62.07-.607.07-.607 1.004.07 1.531 1.03 1.531 1.03.892 1.529 2.341 1.087 2.913.831.09-.647.347-1.087.633-1.337-2.22-.25-4.555-1.11-4.555-4.942 0-1.092.388-1.983 1.03-2.683-.113-.253-.45-1.27.087-2.647 0 0 .837-.268 2.75 1.025.8-.223 1.65-.332 2.5-.338.85.006 1.7.115 2.5.338 1.9-1.293 2.737-1.025 2.737-1.025.538 1.378.2 2.394.1 2.647.638.7 1.025 1.591 1.025 2.683 0 3.842-2.337 4.688-4.562 4.933.358.31.685.919.685 1.852 0 1.338-.012 2.413-.012 2.738 0 .263.175.575.688.475A9.973 9.973 0 0 0 20 10.248c0-5.523-4.477-10-10-10" fill="currentColor"/></g><defs><clipPath id="svg-style--auth-github-outlined__clip0_163_1356"><path fill="#fff" d="M0 0h20v20H0z"/></clipPath></defs></symbol><symbol id="svg--auth-google-color" viewBox="0 0 20 20"><path d="M18.8 10.208c0-.65-.058-1.275-.167-1.875H10v3.55h4.933a4.227 4.227 0 0 1-1.841 2.759v2.308h2.975C17.8 15.35 18.8 13 18.8 10.208" fill="#4285F4"/><path d="M10 19.167c2.475 0 4.55-.817 6.067-2.217l-2.975-2.308c-.817.55-1.859.883-3.092.883-2.383 0-4.408-1.608-5.133-3.775h-3.05v2.367c1.508 2.991 4.6 5.05 8.183 5.05" fill="#34A853"/><path d="M4.867 11.742A5.493 5.493 0 0 1 4.575 10c0-.608.108-1.192.292-1.742V5.892h-3.05A9.054 9.054 0 0 0 .833 10c0 1.483.359 2.875.984 4.108l2.375-1.85.675-.516" fill="#FBBC05"/><path d="M10 4.483c1.35 0 2.55.467 3.508 1.367l2.625-2.625C14.542 1.742 12.475.833 10 .833c-3.583 0-6.675 2.059-8.183 5.059l3.05 2.366C5.592 6.092 7.617 4.483 10 4.483" fill="#EA4335"/></symbol><symbol id="svg--dashboard-layout-box" viewBox="0 0 18 18"><path d="M10 6V0h8v6h-8M0 10V0h8v10H0m10 8V8h8v10h-8M0 18v-6h8v6H0M2 8h4V2H2v6m10 8h4v-6h-4v6m0-12h4V2h-4v2M2 16h4v-2H2v2m4-2" fill="currentColor"/></symbol><symbol id="svg--dashboard-wallet" viewBox="0 0 19 18"><path d="M2 16V2v14m0 2c-.55 0-1.02-.196-1.413-.587A1.926 1.926 0 0 1 0 16V2C0 1.45.196.98.588.587A1.926 1.926 0 0 1 2 0h14c.55 0 1.02.196 1.413.588C17.803.979 18 1.45 18 2v2.5h-2V2H2v14h14v-2.5h2V16c0 .55-.196 1.02-.587 1.413A1.926 1.926 0 0 1 16 18H2m8-4c-.55 0-1.02-.196-1.412-.588A1.926 1.926 0 0 1 8 12V6c0-.55.196-1.02.588-1.412A1.926 1.926 0 0 1 10 4h7c.55 0 1.02.196 1.413.588.391.391.587.862.587 1.412v6c0 .55-.196 1.02-.587 1.412A1.926 1.926 0 0 1 17 14h-7m7-2V6h-7v6h7m-4-1.5c.417 0 .77-.146 1.063-.438.291-.291.437-.645.437-1.062 0-.417-.146-.77-.438-1.063A1.447 1.447 0 0 0 13 7.5c-.417 0-.77.146-1.063.438A1.446 1.446 0 0 0 11.5 9c0 .417.146.77.438 1.063.291.291.645.437 1.062.437" fill="currentColor"/></symbol></svg>